<svg width="37" height="37" viewBox="0 0 37 37" fill="none" xmlns="http://www.w3.org/2000/svg">
<path d="M18.2687 36.8422C28.3583 36.8422 36.5374 28.5948 36.5374 18.4211C36.5374 8.2474 28.3583 0 18.2687 0C8.17919 0 0 8.2474 0 18.4211C0 28.5948 8.17919 36.8422 18.2687 36.8422Z" fill="white"/>
<path d="M24.3573 14.5313C19.0806 14.5313 19.0738 19.8318 19.0738 19.859C19.0738 19.859 18.7123 25.1661 24.3573 25.1661C24.3573 25.1661 29.065 25.436 29.065 21.4726H26.6476C26.6476 21.4726 26.7278 22.9647 24.4377 22.9647C24.4377 22.9647 22.0204 23.1269 22.0204 20.5542H29.1454C29.1454 20.5542 29.929 14.5313 24.3573 14.5313ZM21.9933 18.6973C21.9933 18.6973 22.288 16.5635 24.411 16.5635C26.5405 16.5635 26.507 18.6973 26.507 18.6973H21.9933ZM15.9537 17.3335C15.9537 17.3335 18.0496 17.1782 18.0496 14.6935C18.0496 12.2156 16.3353 11 14.159 11H7V24.8755H14.1583C14.1583 24.8755 18.5312 25.0108 18.5312 20.7771C18.5316 20.7771 18.7192 17.3335 15.9537 17.3335ZM10.1543 13.4644H14.1586C14.1586 13.4644 15.1297 13.4644 15.1297 14.9092C15.1297 16.354 14.5605 16.5635 13.9108 16.5635H10.1543V13.4644ZM13.958 22.4111H10.1543V18.6973H14.1586C14.1586 18.6973 15.612 18.6838 15.6052 20.608C15.6052 22.2288 14.5273 22.3976 13.958 22.4111ZM21.3974 11.817V13.5255H27.0762V11.817H21.3974Z" fill="black"/>
</svg>
