<svg width="37" height="37" viewBox="0 0 37 37" fill="none" xmlns="http://www.w3.org/2000/svg">
<path d="M25.4375 0H11.5625C5.17769 0 0 5.17769 0 11.5625V25.4375C0 31.8223 5.17769 37 11.5625 37H25.4375C31.8223 37 37 31.8223 37 25.4375V11.5625C37 5.17769 31.8223 0 25.4375 0ZM33.5312 25.4375C33.5312 29.9006 29.9006 33.5312 25.4375 33.5312H11.5625C7.09938 33.5312 3.46875 29.9006 3.46875 25.4375V11.5625C3.46875 7.09938 7.09938 3.46875 11.5625 3.46875H25.4375C29.9006 3.46875 33.5312 7.09938 33.5312 11.5625V25.4375Z" fill="white"/>
<path d="M17.9547 9.20996C12.9102 9.20996 8.82031 13.3339 8.82031 18.4203C8.82031 23.5068 12.9102 27.6307 17.9547 27.6307C22.9991 27.6307 27.089 23.5068 27.089 18.4203C27.089 13.3339 22.9991 9.20996 17.9547 9.20996ZM17.9547 24.1768C14.8079 24.1768 12.2457 21.5933 12.2457 18.4203C12.2457 15.2451 14.8079 12.6639 17.9547 12.6639C21.1015 12.6639 23.6637 15.2451 23.6637 18.4203C23.6637 21.5933 21.1015 24.1768 17.9547 24.1768Z" fill="white"/>
</svg>
