<svg width="15" height="23" viewBox="0 0 15 23" fill="none" xmlns="http://www.w3.org/2000/svg">
<path d="M7.50024 3.37402C5.29451 3.37402 3.5 5.1682 3.5 7.37354C3.5 9.56478 5.26531 11.373 7.50024 11.373C9.76274 11.373 11.5005 9.54069 11.5005 7.37354C11.5005 5.1682 9.70598 3.37402 7.50024 3.37402ZM7.50024 10.0488C6.02207 10.0488 4.82453 8.84744 4.82453 7.37354C4.82453 5.90331 6.02975 4.69831 7.50024 4.69831C8.97073 4.69831 10.1715 5.90331 10.1715 7.37354C10.1715 8.82594 9.00185 10.0488 7.50024 10.0488Z" fill="#03316C"/>
<path d="M7.50024 0.000976562C3.36461 0.000976562 0 3.62802 0 8.08623C0 9.59251 0.387054 11.0625 1.11958 12.3378L7.07331 22.6805C7.18736 22.8786 7.38828 22.999 7.60437 22.999H7.60933C7.8273 22.9972 8.02864 22.8731 8.1406 22.6715L13.9426 12.2286C14.6347 10.9802 15.0005 9.54782 15.0005 8.08623C15.0005 3.62802 11.6359 0.000976562 7.50024 0.000976562ZM12.8698 11.5367L7.59491 21.031L2.18203 11.6278C1.5723 10.5663 1.24171 9.34169 1.24171 8.08623C1.24171 4.37106 4.05388 1.33953 7.50024 1.33953C10.9466 1.33953 13.7546 4.37106 13.7546 8.08623C13.7546 9.30445 13.4458 10.4978 12.8698 11.5367Z" fill="#03316C"/>
</svg>
