<svg width="36" height="37" viewBox="0 0 36 37" fill="none" xmlns="http://www.w3.org/2000/svg">
<path d="M18 0C8.05921 0 0 8.2827 0 18.5C0 28.7173 8.05921 37 18 37C27.9408 37 36 28.7173 36 18.5C36 8.2827 27.9408 0 18 0ZM20.0712 24.6448C18.4062 24.6448 16.8403 23.7197 16.304 22.6694C16.304 22.6694 15.4084 26.3202 15.2202 27.0246C14.5525 29.5152 12.5884 32.0066 12.4356 32.2106C12.3291 32.3526 12.0938 32.3083 12.0695 32.1198C12.0279 31.8026 11.5263 28.6605 12.1163 26.098C12.4113 24.811 14.0987 17.4625 14.0987 17.4625C14.0987 17.4625 13.6074 16.4507 13.6074 14.9548C13.6074 12.6061 14.9318 10.8528 16.581 10.8528C17.9831 10.8528 18.66 11.935 18.66 13.2322C18.66 14.6811 17.7628 16.8478 17.2999 18.8554C16.9128 20.5364 18.1193 21.9078 19.7324 21.9078C22.654 21.9078 24.6203 18.0515 24.6203 13.4816C24.6203 10.0091 22.3458 7.40871 18.2055 7.40871C13.5294 7.40871 10.6133 10.9936 10.6133 14.9987C10.6133 16.3788 11.0103 17.3535 11.6312 18.1063C11.9159 18.4527 11.9564 18.592 11.8529 18.9894C11.7782 19.2813 11.6099 19.983 11.5384 20.2605C11.4357 20.6625 11.1197 20.8055 10.7657 20.6575C8.61275 19.754 7.6088 17.3292 7.6088 14.6035C7.6088 10.1019 11.3023 4.70383 18.6287 4.70383C24.5157 4.70383 28.3905 9.08175 28.3905 13.7822C28.3908 20.0004 25.0273 24.6448 20.0712 24.6448Z" fill="white"/>
</svg>
