<svg width="201" height="187" viewBox="0 0 201 187" fill="none" xmlns="http://www.w3.org/2000/svg">
<path d="M71.877 123.42C71.877 125.486 70.1684 127.16 68.0606 127.16C65.9528 127.16 64.2441 125.486 64.2441 123.42C64.2441 121.355 65.9528 119.68 68.0606 119.68C70.1684 119.68 71.877 121.355 71.877 123.42Z" fill="black"/>
<ellipse cx="45.7969" cy="123.42" rx="3.81646" ry="3.74" fill="black"/>
<ellipse cx="176.828" cy="123.42" rx="3.81645" ry="3.74" fill="black"/>
<ellipse cx="197.182" cy="123.42" rx="3.81645" ry="3.74" fill="black"/>
<ellipse cx="3.81646" cy="123.42" rx="3.81646" ry="3.74" fill="black"/>
<ellipse cx="3.81646" cy="123.42" rx="3.81646" ry="3.74" fill="black"/>
<ellipse cx="110.677" cy="123.42" rx="3.81646" ry="3.74" fill="black"/>
<ellipse cx="153.931" cy="123.42" rx="3.81646" ry="3.74" fill="black"/>
<ellipse cx="133.576" cy="123.42" rx="3.81647" ry="3.74" fill="black"/>
<ellipse cx="90.3228" cy="123.42" rx="3.81646" ry="3.74" fill="black"/>
<ellipse cx="24.1705" cy="123.42" rx="3.81646" ry="3.74" fill="black"/>
<path d="M71.877 143.366C71.877 145.432 70.1684 147.106 68.0606 147.106C65.9528 147.106 64.2441 145.432 64.2441 143.366C64.2441 141.301 65.9528 139.626 68.0606 139.626C70.1684 139.626 71.877 141.301 71.877 143.366Z" fill="black"/>
<ellipse cx="45.7969" cy="143.366" rx="3.81646" ry="3.74" fill="black"/>
<ellipse cx="176.828" cy="143.366" rx="3.81645" ry="3.74" fill="black"/>
<ellipse cx="197.182" cy="143.366" rx="3.81645" ry="3.74" fill="black"/>
<ellipse cx="3.81646" cy="143.366" rx="3.81646" ry="3.74" fill="black"/>
<ellipse cx="3.81646" cy="143.366" rx="3.81646" ry="3.74" fill="black"/>
<ellipse cx="110.677" cy="143.366" rx="3.81646" ry="3.74" fill="black"/>
<ellipse cx="153.931" cy="143.366" rx="3.81646" ry="3.74" fill="black"/>
<ellipse cx="133.576" cy="143.366" rx="3.81647" ry="3.74" fill="black"/>
<ellipse cx="90.3228" cy="143.366" rx="3.81646" ry="3.74" fill="black"/>
<ellipse cx="24.1705" cy="143.366" rx="3.81646" ry="3.74" fill="black"/>
<path d="M71.877 123.42C71.877 125.486 70.1684 127.16 68.0606 127.16C65.9528 127.16 64.2441 125.486 64.2441 123.42C64.2441 121.355 65.9528 119.68 68.0606 119.68C70.1684 119.68 71.877 121.355 71.877 123.42Z" fill="black"/>
<ellipse cx="45.7969" cy="123.42" rx="3.81646" ry="3.74" fill="black"/>
<ellipse cx="176.828" cy="123.42" rx="3.81645" ry="3.74" fill="black"/>
<ellipse cx="197.182" cy="123.42" rx="3.81645" ry="3.74" fill="black"/>
<ellipse cx="3.81646" cy="123.42" rx="3.81646" ry="3.74" fill="black"/>
<ellipse cx="3.81646" cy="123.42" rx="3.81646" ry="3.74" fill="black"/>
<ellipse cx="110.677" cy="123.42" rx="3.81646" ry="3.74" fill="black"/>
<ellipse cx="153.931" cy="123.42" rx="3.81646" ry="3.74" fill="black"/>
<ellipse cx="133.576" cy="123.42" rx="3.81647" ry="3.74" fill="black"/>
<ellipse cx="90.3228" cy="123.42" rx="3.81646" ry="3.74" fill="black"/>
<ellipse cx="24.1705" cy="123.42" rx="3.81646" ry="3.74" fill="black"/>
<path d="M71.877 3.74C71.877 5.80554 70.1684 7.48 68.0606 7.48C65.9528 7.48 64.2441 5.80554 64.2441 3.74C64.2441 1.67446 65.9528 3.52834e-10 68.0606 7.88076e-10C70.1684 1.22332e-09 71.877 1.67446 71.877 3.74Z" fill="black"/>
<ellipse cx="45.7969" cy="3.74" rx="3.81646" ry="3.74" fill="black"/>
<ellipse cx="176.828" cy="3.74" rx="3.81645" ry="3.74" fill="black"/>
<ellipse cx="197.182" cy="3.74" rx="3.81645" ry="3.74" fill="black"/>
<ellipse cx="3.81646" cy="3.74" rx="3.81646" ry="3.74" fill="black"/>
<ellipse cx="3.81646" cy="3.74" rx="3.81646" ry="3.74" fill="black"/>
<ellipse cx="110.677" cy="3.74" rx="3.81646" ry="3.74" fill="black"/>
<ellipse cx="153.931" cy="3.74" rx="3.81646" ry="3.74" fill="black"/>
<ellipse cx="133.576" cy="3.74" rx="3.81647" ry="3.74" fill="black"/>
<ellipse cx="90.3228" cy="3.74" rx="3.81646" ry="3.74" fill="black"/>
<ellipse cx="24.1705" cy="3.74" rx="3.81646" ry="3.74" fill="black"/>
<path d="M71.877 23.6868C71.877 25.7523 70.1684 27.4268 68.0606 27.4268C65.9528 27.4268 64.2441 25.7523 64.2441 23.6868C64.2441 21.6212 65.9528 19.9468 68.0606 19.9468C70.1684 19.9468 71.877 21.6212 71.877 23.6868Z" fill="black"/>
<ellipse cx="45.7969" cy="23.6868" rx="3.81646" ry="3.74" fill="black"/>
<ellipse cx="176.828" cy="23.6868" rx="3.81645" ry="3.74" fill="black"/>
<ellipse cx="197.182" cy="23.6868" rx="3.81645" ry="3.74" fill="black"/>
<ellipse cx="3.81646" cy="23.6868" rx="3.81646" ry="3.74" fill="black"/>
<ellipse cx="3.81646" cy="23.6868" rx="3.81646" ry="3.74" fill="black"/>
<ellipse cx="110.677" cy="23.6868" rx="3.81646" ry="3.74" fill="black"/>
<ellipse cx="153.931" cy="23.6868" rx="3.81646" ry="3.74" fill="black"/>
<ellipse cx="133.576" cy="23.6868" rx="3.81647" ry="3.74" fill="black"/>
<ellipse cx="90.3228" cy="23.6868" rx="3.81646" ry="3.74" fill="black"/>
<ellipse cx="24.1705" cy="23.6868" rx="3.81646" ry="3.74" fill="black"/>
<path d="M71.877 3.74C71.877 5.80554 70.1684 7.48 68.0606 7.48C65.9528 7.48 64.2441 5.80554 64.2441 3.74C64.2441 1.67446 65.9528 3.52834e-10 68.0606 7.88076e-10C70.1684 1.22332e-09 71.877 1.67446 71.877 3.74Z" fill="black"/>
<ellipse cx="45.7969" cy="3.74" rx="3.81646" ry="3.74" fill="black"/>
<ellipse cx="176.828" cy="3.74" rx="3.81645" ry="3.74" fill="black"/>
<ellipse cx="197.182" cy="3.74" rx="3.81645" ry="3.74" fill="black"/>
<ellipse cx="3.81646" cy="3.74" rx="3.81646" ry="3.74" fill="black"/>
<ellipse cx="3.81646" cy="3.74" rx="3.81646" ry="3.74" fill="black"/>
<ellipse cx="110.677" cy="3.74" rx="3.81646" ry="3.74" fill="black"/>
<ellipse cx="153.931" cy="3.74" rx="3.81646" ry="3.74" fill="black"/>
<ellipse cx="133.576" cy="3.74" rx="3.81647" ry="3.74" fill="black"/>
<ellipse cx="90.3228" cy="3.74" rx="3.81646" ry="3.74" fill="black"/>
<ellipse cx="24.1705" cy="3.74" rx="3.81646" ry="3.74" fill="black"/>
<path d="M71.877 163.313C71.877 165.379 70.1684 167.053 68.0606 167.053C65.9528 167.053 64.2441 165.379 64.2441 163.313C64.2441 161.248 65.9528 159.573 68.0606 159.573C70.1684 159.573 71.877 161.248 71.877 163.313Z" fill="black"/>
<ellipse cx="45.7969" cy="163.313" rx="3.81646" ry="3.74001" fill="black"/>
<ellipse cx="176.828" cy="163.313" rx="3.81645" ry="3.74001" fill="black"/>
<ellipse cx="197.182" cy="163.313" rx="3.81645" ry="3.74001" fill="black"/>
<ellipse cx="3.81646" cy="163.313" rx="3.81646" ry="3.74001" fill="black"/>
<ellipse cx="3.81646" cy="163.313" rx="3.81646" ry="3.74001" fill="black"/>
<ellipse cx="110.677" cy="163.313" rx="3.81646" ry="3.74001" fill="black"/>
<ellipse cx="153.931" cy="163.313" rx="3.81646" ry="3.74001" fill="black"/>
<ellipse cx="133.576" cy="163.313" rx="3.81647" ry="3.74001" fill="black"/>
<ellipse cx="90.3228" cy="163.313" rx="3.81646" ry="3.74001" fill="black"/>
<ellipse cx="24.1705" cy="163.313" rx="3.81646" ry="3.74001" fill="black"/>
<path d="M71.877 183.26C71.877 185.326 70.1684 187 68.0606 187C65.9528 187 64.2441 185.326 64.2441 183.26C64.2441 181.194 65.9528 179.52 68.0606 179.52C70.1684 179.52 71.877 181.194 71.877 183.26Z" fill="black"/>
<ellipse cx="45.7969" cy="183.26" rx="3.81646" ry="3.73999" fill="black"/>
<ellipse cx="176.828" cy="183.26" rx="3.81645" ry="3.73999" fill="black"/>
<ellipse cx="197.182" cy="183.26" rx="3.81645" ry="3.73999" fill="black"/>
<ellipse cx="3.81646" cy="183.26" rx="3.81646" ry="3.73999" fill="black"/>
<ellipse cx="3.81646" cy="183.26" rx="3.81646" ry="3.73999" fill="black"/>
<ellipse cx="110.677" cy="183.26" rx="3.81646" ry="3.73999" fill="black"/>
<ellipse cx="153.931" cy="183.26" rx="3.81646" ry="3.73999" fill="black"/>
<ellipse cx="133.576" cy="183.26" rx="3.81647" ry="3.73999" fill="black"/>
<ellipse cx="90.3228" cy="183.26" rx="3.81646" ry="3.73999" fill="black"/>
<ellipse cx="24.1705" cy="183.26" rx="3.81646" ry="3.73999" fill="black"/>
<path d="M71.877 163.313C71.877 165.379 70.1684 167.053 68.0606 167.053C65.9528 167.053 64.2441 165.379 64.2441 163.313C64.2441 161.248 65.9528 159.573 68.0606 159.573C70.1684 159.573 71.877 161.248 71.877 163.313Z" fill="black"/>
<ellipse cx="45.7969" cy="163.313" rx="3.81646" ry="3.74001" fill="black"/>
<ellipse cx="176.828" cy="163.313" rx="3.81645" ry="3.74001" fill="black"/>
<ellipse cx="197.182" cy="163.313" rx="3.81645" ry="3.74001" fill="black"/>
<ellipse cx="3.81646" cy="163.313" rx="3.81646" ry="3.74001" fill="black"/>
<ellipse cx="3.81646" cy="163.313" rx="3.81646" ry="3.74001" fill="black"/>
<ellipse cx="110.677" cy="163.313" rx="3.81646" ry="3.74001" fill="black"/>
<ellipse cx="153.931" cy="163.313" rx="3.81646" ry="3.74001" fill="black"/>
<ellipse cx="133.576" cy="163.313" rx="3.81647" ry="3.74001" fill="black"/>
<ellipse cx="90.3228" cy="163.313" rx="3.81646" ry="3.74001" fill="black"/>
<ellipse cx="24.1705" cy="163.313" rx="3.81646" ry="3.74001" fill="black"/>
<path d="M71.877 83.5266C71.877 85.5922 70.1684 87.2666 68.0606 87.2666C65.9528 87.2666 64.2441 85.5922 64.2441 83.5266C64.2441 81.4611 65.9528 79.7866 68.0606 79.7866C70.1684 79.7866 71.877 81.4611 71.877 83.5266Z" fill="black"/>
<ellipse cx="45.7969" cy="83.5266" rx="3.81646" ry="3.74001" fill="black"/>
<ellipse cx="176.828" cy="83.5266" rx="3.81645" ry="3.74001" fill="black"/>
<ellipse cx="197.182" cy="83.5266" rx="3.81645" ry="3.74001" fill="black"/>
<ellipse cx="3.81646" cy="83.5266" rx="3.81646" ry="3.74001" fill="black"/>
<ellipse cx="3.81646" cy="83.5266" rx="3.81646" ry="3.74001" fill="black"/>
<ellipse cx="110.677" cy="83.5266" rx="3.81646" ry="3.74001" fill="black"/>
<ellipse cx="153.931" cy="83.5266" rx="3.81646" ry="3.74001" fill="black"/>
<ellipse cx="133.576" cy="83.5266" rx="3.81647" ry="3.74001" fill="black"/>
<ellipse cx="90.3228" cy="83.5266" rx="3.81646" ry="3.74001" fill="black"/>
<ellipse cx="24.1705" cy="83.5266" rx="3.81646" ry="3.74001" fill="black"/>
<path d="M71.877 103.473C71.877 105.539 70.1684 107.213 68.0606 107.213C65.9528 107.213 64.2441 105.539 64.2441 103.473C64.2441 101.408 65.9528 99.7334 68.0606 99.7334C70.1684 99.7334 71.877 101.408 71.877 103.473Z" fill="black"/>
<ellipse cx="45.7969" cy="103.473" rx="3.81646" ry="3.74" fill="black"/>
<ellipse cx="176.828" cy="103.473" rx="3.81645" ry="3.74" fill="black"/>
<ellipse cx="197.182" cy="103.473" rx="3.81645" ry="3.74" fill="black"/>
<ellipse cx="3.81646" cy="103.473" rx="3.81646" ry="3.74" fill="black"/>
<ellipse cx="3.81646" cy="103.473" rx="3.81646" ry="3.74" fill="black"/>
<ellipse cx="110.677" cy="103.473" rx="3.81646" ry="3.74" fill="black"/>
<ellipse cx="153.931" cy="103.473" rx="3.81646" ry="3.74" fill="black"/>
<ellipse cx="133.576" cy="103.473" rx="3.81647" ry="3.74" fill="black"/>
<ellipse cx="90.3228" cy="103.473" rx="3.81646" ry="3.74" fill="black"/>
<ellipse cx="24.1705" cy="103.473" rx="3.81646" ry="3.74" fill="black"/>
<path d="M71.877 83.5266C71.877 85.5922 70.1684 87.2666 68.0606 87.2666C65.9528 87.2666 64.2441 85.5922 64.2441 83.5266C64.2441 81.4611 65.9528 79.7866 68.0606 79.7866C70.1684 79.7866 71.877 81.4611 71.877 83.5266Z" fill="black"/>
<ellipse cx="45.7969" cy="83.5266" rx="3.81646" ry="3.74001" fill="black"/>
<ellipse cx="176.828" cy="83.5266" rx="3.81645" ry="3.74001" fill="black"/>
<ellipse cx="197.182" cy="83.5266" rx="3.81645" ry="3.74001" fill="black"/>
<ellipse cx="3.81646" cy="83.5266" rx="3.81646" ry="3.74001" fill="black"/>
<ellipse cx="3.81646" cy="83.5266" rx="3.81646" ry="3.74001" fill="black"/>
<ellipse cx="110.677" cy="83.5266" rx="3.81646" ry="3.74001" fill="black"/>
<ellipse cx="153.931" cy="83.5266" rx="3.81646" ry="3.74001" fill="black"/>
<ellipse cx="133.576" cy="83.5266" rx="3.81647" ry="3.74001" fill="black"/>
<ellipse cx="90.3228" cy="83.5266" rx="3.81646" ry="3.74001" fill="black"/>
<ellipse cx="24.1705" cy="83.5266" rx="3.81646" ry="3.74001" fill="black"/>
<path d="M71.877 43.6336C71.877 45.6991 70.1684 47.3736 68.0606 47.3736C65.9528 47.3736 64.2441 45.6991 64.2441 43.6336C64.2441 41.568 65.9528 39.8936 68.0606 39.8936C70.1684 39.8936 71.877 41.568 71.877 43.6336Z" fill="black"/>
<ellipse cx="45.7969" cy="43.6336" rx="3.81646" ry="3.74" fill="black"/>
<ellipse cx="176.828" cy="43.6336" rx="3.81645" ry="3.74" fill="black"/>
<ellipse cx="197.182" cy="43.6336" rx="3.81645" ry="3.74" fill="black"/>
<ellipse cx="3.81646" cy="43.6336" rx="3.81646" ry="3.74" fill="black"/>
<ellipse cx="3.81646" cy="43.6336" rx="3.81646" ry="3.74" fill="black"/>
<ellipse cx="110.677" cy="43.6336" rx="3.81646" ry="3.74" fill="black"/>
<ellipse cx="153.931" cy="43.6336" rx="3.81646" ry="3.74" fill="black"/>
<ellipse cx="133.576" cy="43.6336" rx="3.81647" ry="3.74" fill="black"/>
<ellipse cx="90.3228" cy="43.6336" rx="3.81646" ry="3.74" fill="black"/>
<ellipse cx="24.1705" cy="43.6336" rx="3.81646" ry="3.74" fill="black"/>
<path d="M71.877 63.5798C71.877 65.6454 70.1684 67.3199 68.0606 67.3199C65.9528 67.3199 64.2441 65.6454 64.2441 63.5798C64.2441 61.5143 65.9528 59.8398 68.0606 59.8398C70.1684 59.8398 71.877 61.5143 71.877 63.5798Z" fill="black"/>
<ellipse cx="45.7969" cy="63.5798" rx="3.81646" ry="3.74001" fill="black"/>
<ellipse cx="176.828" cy="63.5798" rx="3.81645" ry="3.74001" fill="black"/>
<ellipse cx="197.182" cy="63.5798" rx="3.81645" ry="3.74001" fill="black"/>
<ellipse cx="3.81646" cy="63.5798" rx="3.81646" ry="3.74001" fill="black"/>
<ellipse cx="3.81646" cy="63.5798" rx="3.81646" ry="3.74001" fill="black"/>
<ellipse cx="110.677" cy="63.5798" rx="3.81646" ry="3.74001" fill="black"/>
<ellipse cx="153.931" cy="63.5798" rx="3.81646" ry="3.74001" fill="black"/>
<ellipse cx="133.576" cy="63.5798" rx="3.81647" ry="3.74001" fill="black"/>
<ellipse cx="90.3228" cy="63.5798" rx="3.81646" ry="3.74001" fill="black"/>
<ellipse cx="24.1705" cy="63.5798" rx="3.81646" ry="3.74001" fill="black"/>
<path d="M71.877 43.6336C71.877 45.6991 70.1684 47.3736 68.0606 47.3736C65.9528 47.3736 64.2441 45.6991 64.2441 43.6336C64.2441 41.568 65.9528 39.8936 68.0606 39.8936C70.1684 39.8936 71.877 41.568 71.877 43.6336Z" fill="black"/>
<ellipse cx="45.7969" cy="43.6336" rx="3.81646" ry="3.74" fill="black"/>
<ellipse cx="176.828" cy="43.6336" rx="3.81645" ry="3.74" fill="black"/>
<ellipse cx="197.182" cy="43.6336" rx="3.81645" ry="3.74" fill="black"/>
<ellipse cx="3.81646" cy="43.6336" rx="3.81646" ry="3.74" fill="black"/>
<ellipse cx="3.81646" cy="43.6336" rx="3.81646" ry="3.74" fill="black"/>
<ellipse cx="110.677" cy="43.6336" rx="3.81646" ry="3.74" fill="black"/>
<ellipse cx="153.931" cy="43.6336" rx="3.81646" ry="3.74" fill="black"/>
<ellipse cx="133.576" cy="43.6336" rx="3.81647" ry="3.74" fill="black"/>
<ellipse cx="90.3228" cy="43.6336" rx="3.81646" ry="3.74" fill="black"/>
<ellipse cx="24.1705" cy="43.6336" rx="3.81646" ry="3.74" fill="black"/>
</svg>
