<svg width="44" height="38" viewBox="0 0 44 38" fill="none" xmlns="http://www.w3.org/2000/svg">
<g filter="url(#filter0_d)">
<mask id="path-1-inside-1" fill="white">
<path d="M18.1261 19.772L17.5306 28.148C18.3826 28.148 18.7516 27.782 19.1941 27.3425L23.1887 23.525L31.4659 29.5865C32.984 30.4324 34.0535 29.9869 34.463 28.19L39.8961 2.73209L39.8976 2.73059C40.3791 0.486606 39.0861 -0.39089 37.6071 0.159607L5.67131 12.386C3.49175 13.232 3.52476 14.447 5.3008 14.9975L13.4655 17.537L32.4304 5.67058C33.323 5.07958 34.1345 5.40658 33.467 5.99758L18.1261 19.772Z"/>
</mask>
<path d="M18.1261 19.772L17.5306 28.148C18.3826 28.148 18.7516 27.782 19.1941 27.3425L23.1887 23.525L31.4659 29.5865C32.984 30.4324 34.0535 29.9869 34.463 28.19L39.8961 2.73209L39.8976 2.73059C40.3791 0.486606 39.0861 -0.39089 37.6071 0.159607L5.67131 12.386C3.49175 13.232 3.52476 14.447 5.3008 14.9975L13.4655 17.537L32.4304 5.67058C33.323 5.07958 34.1345 5.40658 33.467 5.99758L18.1261 19.772Z" fill="#03316C"/>
<path d="M18.1261 19.772L3.87336 3.89843L-2.54205 9.65877L-3.15351 18.2591L18.1261 19.772ZM17.5306 28.148L-3.74903 26.635L-5.37335 49.4813H17.5306V28.148ZM19.1941 27.3425L4.45498 11.9195L4.30651 12.0614L4.1608 12.2061L19.1941 27.3425ZM23.1887 23.525L35.793 6.31328L21.3719 -4.24742L8.44957 8.102L23.1887 23.525ZM31.4659 29.5865L18.8616 46.7982L19.9271 47.5784L21.0808 48.2214L31.4659 29.5865ZM34.463 28.19L55.2631 32.93L55.2958 32.7865L55.3265 32.6426L34.463 28.19ZM39.8961 2.73209L24.8052 -12.3469L20.3486 -7.88676L19.0326 -1.72052L39.8961 2.73209ZM39.8976 2.73059L54.9885 17.8096L59.436 13.3586L60.7562 7.20639L39.8976 2.73059ZM37.6071 0.159607L30.1655 -19.8338L30.0724 -19.7991L29.9796 -19.7636L37.6071 0.159607ZM5.67131 12.386L-1.95617 -7.53713L-2.00219 -7.51951L-2.04813 -7.50168L5.67131 12.386ZM5.3008 14.9975L11.6368 -5.3732L11.6268 -5.37631L11.6168 -5.37941L5.3008 14.9975ZM13.4655 17.537L7.12953 37.9077L16.48 40.8161L24.7813 35.6219L13.4655 17.537ZM32.4304 5.67058L43.7462 23.7555L43.9793 23.6096L44.2086 23.4579L32.4304 5.67058ZM33.467 5.99758L19.3253 -9.97505L19.2696 -9.92572L19.2142 -9.876L33.467 5.99758ZM-3.15351 18.2591L-3.74903 26.635L38.8102 29.6609L39.4057 21.2849L-3.15351 18.2591ZM17.5306 49.4813C21.3499 49.4813 25.3878 48.5724 29.1689 46.3931C30.8395 45.4302 32.0888 44.4301 32.8946 43.7269C33.6131 43.0999 34.2094 42.4968 34.2275 42.4789L4.1608 12.2061C3.59351 12.7695 5.30543 10.901 7.86291 9.42694C11.1359 7.54048 14.5633 6.81463 17.5306 6.81463V49.4813ZM33.9333 42.7654L37.9279 38.948L8.44957 8.102L4.45498 11.9195L33.9333 42.7654ZM10.5844 40.7367L18.8616 46.7982L44.0702 12.3747L35.793 6.31328L10.5844 40.7367ZM21.0808 48.2214C24.3358 50.0354 32.6602 53.6252 42.1824 49.3121C51.6238 45.0355 54.4495 36.5003 55.2631 32.93L13.6629 23.4499C14.067 21.6766 16.1532 14.2626 24.578 10.4466C33.0834 6.59396 40.1141 9.98355 41.8511 10.9516L21.0808 48.2214ZM55.3265 32.6426L60.7596 7.18471L19.0326 -1.72052L13.5995 23.7373L55.3265 32.6426ZM54.987 17.8111L54.9885 17.8096L24.8067 -12.3484L24.8052 -12.3469L54.987 17.8111ZM60.7562 7.20639C61.7849 2.41224 62.2231 -7.33111 54.2799 -14.9748C46.0815 -22.8641 35.8593 -21.953 30.1655 -19.8338L45.0486 20.153C40.8339 21.7217 31.9977 22.7963 24.6952 15.7691C17.6479 8.98757 18.4919 0.804955 19.0391 -1.7452L60.7562 7.20639ZM29.9796 -19.7636L-1.95617 -7.53713L13.2988 32.3092L45.2346 20.0828L29.9796 -19.7636ZM-2.04813 -7.50168C-4.00592 -6.74176 -6.85104 -5.39295 -9.61308 -2.97339C-12.2553 -0.658787 -16.5711 4.25237 -17.2481 11.9282C-17.987 20.3051 -13.9683 26.5991 -10.2658 30.0603C-6.87476 33.2304 -3.2491 34.682 -1.01518 35.3745L11.6168 -5.37941C12.9627 -4.96224 15.9182 -3.86887 18.8716 -1.1079C22.1365 1.94426 25.9502 7.77836 25.2535 15.677C24.6187 22.8745 20.5923 27.2889 18.5014 29.1205C16.2907 31.0572 14.2588 31.9368 13.3907 32.2738L-2.04813 -7.50168ZM-1.03516 35.3683L7.12953 37.9077L19.8015 -2.83372L11.6368 -5.3732L-1.03516 35.3683ZM24.7813 35.6219L43.7462 23.7555L21.1147 -12.4143L2.1497 -0.547894L24.7813 35.6219ZM44.2086 23.4579C42.4849 24.5992 40.3305 25.6179 37.7672 26.1974C35.6056 26.6861 31.3754 27.2568 26.4167 25.502C23.8043 24.5775 20.1728 22.6913 17.1261 18.9503C13.8395 14.9147 12.2077 9.87615 12.3932 4.83012C12.716 -3.94961 18.1147 -8.90321 19.3253 -9.97505L47.6086 21.9702C49.153 20.6029 54.7005 15.3868 55.0311 6.39797C55.4831 -5.89561 46.5144 -12.6453 40.6508 -14.7203C35.461 -16.5569 30.9023 -15.9941 28.3584 -15.4189C25.4128 -14.753 22.8223 -13.5535 20.6523 -12.1167L44.2086 23.4579ZM19.2142 -9.876L3.87336 3.89843L32.3788 35.6456L47.7197 21.8712L19.2142 -9.876Z" fill="white" mask="url(#path-1-inside-1)"/>
</g>
<defs>
<filter id="filter0_d" x="0" y="0" width="44" height="38" filterUnits="userSpaceOnUse" color-interpolation-filters="sRGB">
<feFlood flood-opacity="0" result="BackgroundImageFix"/>
<feColorMatrix in="SourceAlpha" type="matrix" values="0 0 0 0 0 0 0 0 0 0 0 0 0 0 0 0 0 0 127 0" result="hardAlpha"/>
<feOffset dy="4"/>
<feGaussianBlur stdDeviation="2"/>
<feColorMatrix type="matrix" values="0 0 0 0 0 0 0 0 0 0 0 0 0 0 0 0 0 0 0.25 0"/>
<feBlend mode="normal" in2="BackgroundImageFix" result="effect1_dropShadow"/>
<feBlend mode="normal" in="SourceGraphic" in2="effect1_dropShadow" result="shape"/>
</filter>
</defs>
</svg>
