<svg width="26" height="26" viewBox="0 0 26 26" fill="none" xmlns="http://www.w3.org/2000/svg">
<path d="M12.5843 25.3785C19.5344 25.3785 25.1686 19.6973 25.1686 12.6892C25.1686 5.68116 19.5344 0 12.5843 0C5.63417 0 0 5.68116 0 12.6892C0 19.6973 5.63417 25.3785 12.5843 25.3785Z" fill="#03316C"/>
<path d="M17.0971 10.4823C13.4623 10.4823 13.4576 14.1335 13.4576 14.1523C13.4576 14.1523 13.2086 17.808 17.0971 17.808C17.0971 17.808 20.3399 17.9939 20.3399 15.2638H18.6748C18.6748 15.2638 18.7299 16.2916 17.1525 16.2916C17.1525 16.2916 15.4873 16.4033 15.4873 14.6311H20.3954C20.3954 14.6311 20.9351 10.4823 17.0971 10.4823ZM15.4687 13.352C15.4687 13.352 15.6717 11.8822 17.1341 11.8822C18.601 11.8822 18.5779 13.352 18.5779 13.352H15.4687ZM11.3083 12.4126C11.3083 12.4126 12.7521 12.3056 12.7521 10.594C12.7521 8.88717 11.5712 8.0498 10.072 8.0498H5.14062V17.6078H10.0716C10.0716 17.6078 13.0838 17.701 13.0838 14.7847C13.0841 14.7847 13.2133 12.4126 11.3083 12.4126ZM7.31346 9.74738H10.0718C10.0718 9.74738 10.7407 9.74738 10.7407 10.7426C10.7407 11.7379 10.3486 11.8822 9.90108 11.8822H7.31346V9.74738ZM9.93361 15.9102H7.31346V13.352H10.0718C10.0718 13.352 11.073 13.3427 11.0683 14.6682C11.0683 15.7847 10.3257 15.901 9.93361 15.9102ZM15.0582 8.61257V9.78946H18.97V8.61257H15.0582Z" fill="#F1F2F2"/>
</svg>
