<svg width="26" height="24" viewBox="0 0 26 24" fill="none" xmlns="http://www.w3.org/2000/svg">
<path d="M13 0C5.8214 0 0 5.3736 0 12C0 18.6264 5.8214 24 13 24C20.1786 24 26 18.6264 26 12C26 5.3736 20.1786 0 13 0ZM9.22235 18.1406H6.05626V9.34808H9.22235V18.1406ZM7.6394 8.14746H7.61877C6.55634 8.14746 5.8692 7.47235 5.8692 6.6286C5.8692 5.76581 6.57736 5.10938 7.66043 5.10938C8.7435 5.10938 9.41 5.76581 9.43063 6.6286C9.43063 7.47235 8.7435 8.14746 7.6394 8.14746ZM20.6386 18.1406H17.4729V13.4368C17.4729 12.2547 17.0145 11.4485 15.8689 11.4485C14.9944 11.4485 14.4734 11.9923 14.2445 12.5173C14.1608 12.7051 14.1404 12.9677 14.1404 13.2305V18.1406H10.9745C10.9745 18.1406 11.016 10.173 10.9745 9.34808H14.1404V10.593C14.5611 9.9939 15.3139 9.14172 16.9937 9.14172C19.0767 9.14172 20.6386 10.3984 20.6386 13.099V18.1406Z" fill="black"/>
</svg>
