<svg width="24" height="25" viewBox="0 0 24 25" fill="none" xmlns="http://www.w3.org/2000/svg">
<path d="M12 0C5.37281 0 0 5.59642 0 12.5C0 19.4036 5.37281 25 12 25C18.6272 25 24 19.4036 24 12.5C24 5.59642 18.6272 0 12 0ZM13.3808 16.6519C12.2708 16.6519 11.2268 16.0269 10.8694 15.3171C10.8694 15.3171 10.2722 17.7839 10.1468 18.2598C9.70165 19.9427 8.39227 21.6261 8.29037 21.7639C8.21942 21.8598 8.06253 21.8299 8.04632 21.7026C8.01858 21.4882 7.68417 19.3652 8.0775 17.6338C8.27417 16.7642 9.39916 11.799 9.39916 11.799C9.39916 11.799 9.07163 11.1153 9.07163 10.1046C9.07163 8.51765 9.95454 7.33299 11.054 7.33299C11.9887 7.33299 12.44 8.06419 12.44 8.94067C12.44 9.91969 11.8419 11.3836 11.5333 12.7402C11.2752 13.876 12.0795 14.8026 13.1549 14.8026C15.1027 14.8026 16.4135 12.1969 16.4135 9.10921C16.4135 6.76292 14.8972 5.00588 12.137 5.00588C9.01958 5.00588 7.07552 7.42813 7.07552 10.1343C7.07552 11.0668 7.34019 11.7253 7.75415 12.234C7.94394 12.468 7.97095 12.5621 7.90195 12.8307C7.85211 13.0279 7.73991 13.502 7.69228 13.6895C7.62378 13.9611 7.41312 14.0578 7.17717 13.9578C5.74183 13.3473 5.07253 11.709 5.07253 9.86726C5.07253 6.82558 7.5349 3.17826 12.4191 3.17826C16.3438 3.17826 18.927 6.13632 18.927 9.31228C18.9272 13.5138 16.6848 16.6519 13.3808 16.6519Z" fill="black"/>
</svg>
