<svg width="19" height="19" viewBox="0 0 19 19" fill="none" xmlns="http://www.w3.org/2000/svg">
<path d="M18.5702 15.108L16.4707 13.7037L14.6043 12.4556C14.2441 12.2152 13.76 12.294 13.4941 12.6364L12.3392 14.126C12.0911 14.4492 11.6448 14.5421 11.2891 14.3445C10.5054 13.9071 9.57875 13.4954 7.53408 11.4414C5.48942 9.38748 5.07636 8.46043 4.64045 7.67424C4.44348 7.31733 4.53607 6.86961 4.85824 6.62075L6.34293 5.4621C6.68423 5.19536 6.76283 4.70972 6.52318 4.34831L5.31734 2.5335L3.87933 0.369457C3.63458 0.00111404 3.14462 -0.109471 2.76623 0.118193L1.1078 1.11635C0.659603 1.38127 0.330144 1.80906 0.187663 2.31103C-0.265857 3.96991 -0.357293 7.62934 5.48842 13.494C11.3341 19.3587 14.9814 19.2667 16.6349 18.8117C17.1352 18.6688 17.5616 18.3382 17.8257 17.8885L18.8206 16.2248C19.0476 15.8451 18.9374 15.3536 18.5702 15.108Z" fill="white"/>
<path d="M12.0573 1.03711C15.4863 1.04093 18.2651 3.82878 18.2689 7.26898C18.2689 7.47142 18.4325 7.63557 18.6344 7.63557C18.8361 7.63557 18.9998 7.47146 18.9998 7.26898C18.9955 3.42406 15.8898 0.308191 12.0573 0.303955C11.8555 0.303955 11.6919 0.468069 11.6919 0.670553C11.6919 0.872954 11.8554 1.03711 12.0573 1.03711Z" fill="white"/>
<path d="M12.0573 3.23686C14.276 3.23947 16.074 5.04331 16.0766 7.26922C16.0766 7.47166 16.2402 7.63582 16.442 7.63582C16.6438 7.63582 16.8074 7.47171 16.8074 7.26922C16.8044 4.63855 14.6795 2.50669 12.0573 2.50366C11.8555 2.50366 11.6919 2.66778 11.6919 2.87026C11.6919 3.07274 11.8555 3.23686 12.0573 3.23686Z" fill="white"/>
<path d="M12.0573 5.43603C13.0658 5.43724 13.883 6.25714 13.8842 7.26894C13.8842 7.47138 14.0478 7.63554 14.2496 7.63554C14.4514 7.63554 14.6151 7.47142 14.6151 7.26894C14.6134 5.85242 13.4692 4.7045 12.0573 4.70288C11.8555 4.70288 11.6919 4.86699 11.6919 5.06948C11.6919 5.27192 11.8554 5.43603 12.0573 5.43603Z" fill="white"/>
</svg>
