<svg width="176" height="39" viewBox="0 0 176 39" fill="none" xmlns="http://www.w3.org/2000/svg">
<path d="M0 0.131348H5.667C7.14012 0.131348 8.43662 0.428332 9.564 1.01478C10.6914 1.60498 11.567 2.42826 12.1871 3.48086C12.8109 4.53345 13.1228 5.74017 13.1228 7.08974C13.1228 8.43932 12.8109 9.64605 12.1871 10.6986C11.5632 11.7512 10.6876 12.5745 9.564 13.1647C8.43662 13.7549 7.13636 14.0481 5.667 14.0481H0V0.131348ZM5.58433 12.7813C6.80191 12.7813 7.86916 12.5407 8.7861 12.0557C9.69929 11.5708 10.4095 10.9016 10.9131 10.0483C11.4167 9.19494 11.6685 8.21001 11.6685 7.09351C11.6685 5.977 11.4167 4.99584 10.9131 4.13873C10.4095 3.28161 9.69929 2.61245 8.7861 2.13127C7.87292 1.64632 6.80566 1.40573 5.58433 1.40573H1.46936V12.7813H5.58433Z" fill="black"/>
<path d="M28.2518 12.7813V14.0557H18.4097V0.131348H27.9549V1.40573H19.8828V6.35669H27.0793V7.60852H19.8828V12.7813H28.2518Z" fill="black"/>
<path d="M34.5661 13.6762C33.6191 13.3454 32.8863 12.9056 32.3677 12.3642L32.9426 11.2289C33.4462 11.7327 34.1151 12.1424 34.9494 12.4507C35.7837 12.7627 36.6442 12.9168 37.5349 12.9168C38.7825 12.9168 39.7145 12.6875 40.3383 12.2289C40.9621 11.7703 41.274 11.18 41.274 10.4508C41.274 9.89438 41.1049 9.45079 40.7667 9.11622C40.4285 8.7854 40.0151 8.52977 39.5228 8.34932C39.0305 8.16888 38.3503 7.9734 37.4747 7.76288C36.4263 7.49597 35.592 7.2441 34.9682 6.99599C34.3444 6.75163 33.8107 6.37571 33.3673 5.87197C32.9239 5.36823 32.7021 4.68404 32.7021 3.82317C32.7021 3.12018 32.8863 2.48111 33.2583 1.90219C33.6304 1.32702 34.1978 0.864633 34.9682 0.51878C35.7386 0.172928 36.6931 0 37.8317 0C38.6284 0 39.4063 0.109017 40.1692 0.327054C40.9321 0.545092 41.5897 0.845834 42.1459 1.23304L41.6498 2.40593C41.0673 2.02248 40.4435 1.73302 39.7821 1.5413C39.1207 1.34958 38.4706 1.25183 37.8355 1.25183C36.6142 1.25183 35.6972 1.48867 35.0809 1.95857C34.4646 2.42848 34.1565 3.03748 34.1565 3.77806C34.1565 4.33443 34.3256 4.78178 34.6638 5.12012C35.002 5.45845 35.4267 5.71784 35.9377 5.89452C36.4488 6.07497 37.1328 6.27045 37.9971 6.48097C39.0193 6.73284 39.8423 6.98096 40.4736 7.22531C41.1012 7.46966 41.6348 7.84182 42.0745 8.33805C42.5142 8.83427 42.7321 9.50718 42.7321 10.3568C42.7321 11.0598 42.5442 11.6988 42.1647 12.2778C41.7851 12.8529 41.2064 13.3116 40.4247 13.6499C39.6431 13.9882 38.681 14.1574 37.5424 14.1574C36.5052 14.1724 35.5131 14.007 34.5661 13.6762Z" fill="black"/>
<path d="M47.9175 0.131348H49.3906V14.0557H47.9175V0.131348Z" fill="black"/>
<path d="M65.7116 7.09369H67.1246V12.4055C66.4744 12.9769 65.7078 13.413 64.8172 13.7175C63.9303 14.022 62.9946 14.1761 62.0138 14.1761C60.6233 14.1761 59.3682 13.8717 58.2558 13.2626C57.1434 12.6536 56.2678 11.8078 55.6327 10.7251C54.9977 9.64623 54.6782 8.43575 54.6782 7.09369C54.6782 5.75539 54.9977 4.5449 55.6327 3.46224C56.2678 2.38333 57.1434 1.53749 58.2558 0.92473C59.3682 0.315728 60.6271 0.0112305 62.0325 0.0112305C63.0923 0.0112305 64.0656 0.1804 64.9562 0.518734C65.8431 0.857068 66.5947 1.35705 67.2035 2.01868L66.2903 2.95473C65.1892 1.8683 63.7913 1.32321 62.0964 1.32321C60.969 1.32321 59.9506 1.57133 59.045 2.06755C58.1355 2.56377 57.4253 3.25548 56.9067 4.13515C56.3881 5.01858 56.1325 5.99974 56.1325 7.08993C56.1325 8.17636 56.3919 9.15753 56.9067 10.0334C57.4253 10.9093 58.1318 11.5973 59.0337 12.101C59.9356 12.6048 60.9502 12.8567 62.0776 12.8567C63.5094 12.8567 64.7232 12.4995 65.7153 11.7815V7.09369H65.7116Z" fill="black"/>
<path d="M84.8998 0.131348V14.0557H83.6859L74.7382 2.75907V14.0557H73.2651V0.131348H74.4789L83.4454 11.4279V0.131348H84.8998Z" fill="black"/>
<path d="M108.579 14.274L106.651 12.2853C105.471 13.5447 103.919 14.1762 101.999 14.1762C101.097 14.1762 100.293 14.0258 99.5823 13.7289C98.872 13.4319 98.3196 13.0146 97.9212 12.477C97.5229 11.9394 97.3237 11.3267 97.3237 10.6387C97.3237 9.80418 97.5905 9.05609 98.1204 8.3907C98.6503 7.72907 99.5522 7.02984 100.826 6.30054C100.165 5.6126 99.7063 5.02614 99.4545 4.5412C99.2027 4.05625 99.0749 3.545 99.0749 2.99991C99.0749 2.11272 99.3944 1.39469 100.029 0.853353C100.665 0.308259 101.521 0.0375977 102.596 0.0375977C103.592 0.0375977 104.377 0.281947 104.964 0.774412C105.546 1.26688 105.839 1.93978 105.839 2.80442C105.839 3.49236 105.606 4.11265 105.144 4.66526C104.678 5.21411 103.878 5.82311 102.739 6.48475L106.557 10.4245C106.982 9.66885 107.294 8.77414 107.493 7.74034L108.646 8.09748C108.395 9.34555 107.985 10.4132 107.414 11.3004L109.402 13.3492L108.579 14.274ZM105.817 11.4282L101.623 7.11254C100.522 7.73658 99.7626 8.30047 99.3455 8.80421C98.9284 9.30795 98.7179 9.87184 98.7179 10.4959C98.7179 11.2515 99.0261 11.8567 99.6424 12.3154C100.259 12.774 101.07 13.0033 102.078 13.0033C103.615 12.9996 104.862 12.477 105.817 11.4282ZM100.973 1.60146C100.582 1.94731 100.386 2.40218 100.386 2.97359C100.386 3.38335 100.492 3.77431 100.706 4.14648C100.916 4.51865 101.333 5.02238 101.957 5.6577C102.964 5.07501 103.66 4.57879 104.047 4.16527C104.43 3.75551 104.622 3.30441 104.622 2.81194C104.622 2.28188 104.441 1.86084 104.084 1.54882C103.727 1.2368 103.231 1.08267 102.592 1.08267C101.905 1.08643 101.364 1.25936 100.973 1.60146Z" fill="black"/>
<path d="M0 23.999H5.667C7.14012 23.999 8.43662 24.296 9.564 24.8825C10.6914 25.4727 11.567 26.2959 12.1871 27.3485C12.8109 28.4011 13.1228 29.6078 13.1228 30.9574C13.1228 32.307 12.8109 33.5137 12.1871 34.5663C11.5632 35.6189 10.6876 36.4422 9.564 37.0324C8.43662 37.6226 7.13636 37.9158 5.667 37.9158H0V23.999ZM5.58433 36.6489C6.80191 36.6489 7.86916 36.4084 8.7861 35.9234C9.69929 35.4385 10.4095 34.7693 10.9131 33.916C11.4167 33.0626 11.6685 32.0777 11.6685 30.9612C11.6685 29.8447 11.4167 28.8635 10.9131 28.0064C10.4095 27.1493 9.69929 26.4801 8.7861 25.999C7.87292 25.514 6.80566 25.2734 5.58433 25.2734H1.46936V36.6489H5.58433Z" fill="black"/>
<path d="M28.2518 36.6489V37.9233H18.4097V23.999H27.9549V25.2734H19.8828V30.2244H27.0793V31.4762H19.8828V36.6489H28.2518Z" fill="black"/>
<path d="M45.0735 23.999L38.9105 37.9233H37.4599L31.2969 23.999H32.8865L38.2153 36.0926L43.5854 23.999H45.0735Z" fill="black"/>
<path d="M59.0384 36.6626V37.937H49.1963V24.0127H58.7415V25.2871H50.6657V30.238H57.8621V31.4899H50.6657V36.6626H59.0384Z" fill="black"/>
<path d="M64.3589 23.999H65.832V36.6489H73.626V37.9233H64.3589V23.999Z" fill="black"/>
<path d="M80.1156 37.1152C78.9957 36.4986 78.1201 35.6528 77.4926 34.5776C76.8612 33.5025 76.5493 32.2958 76.5493 30.9575C76.5493 29.6192 76.865 28.4124 77.4926 27.3373C78.1201 26.2621 78.9957 25.4163 80.1156 24.7998C81.2355 24.1833 82.4831 23.875 83.8623 23.875C85.2415 23.875 86.4816 24.1795 87.5902 24.7885C88.695 25.3975 89.5669 26.2433 90.2057 27.326C90.8408 28.4087 91.1602 29.6154 91.1602 30.9575C91.1602 32.2958 90.8408 33.5063 90.2057 34.5889C89.5706 35.6716 88.6988 36.5137 87.5902 37.1264C86.4816 37.7354 85.2415 38.0399 83.8623 38.0399C82.4869 38.0399 81.2355 37.7317 80.1156 37.1152ZM86.8461 35.9836C87.733 35.4874 88.4282 34.7957 88.9355 33.916C89.4391 33.0326 89.6909 32.0514 89.6909 30.9612C89.6909 29.8748 89.4391 28.8899 88.9355 28.0064C88.432 27.123 87.7367 26.4351 86.8461 25.9388C85.9592 25.4426 84.9634 25.1945 83.8623 25.1945C82.7612 25.1945 81.7654 25.4426 80.871 25.9388C79.9766 26.4351 79.2738 27.1268 78.7627 28.0064C78.2517 28.8899 77.9961 29.871 77.9961 30.9612C77.9961 32.0476 78.2517 33.0326 78.7627 33.916C79.2738 34.7994 79.9766 35.4874 80.871 35.9836C81.7654 36.4798 82.7612 36.7279 83.8623 36.7279C84.9634 36.7279 85.9592 36.4798 86.8461 35.9836Z" fill="black"/>
<path d="M105.835 25.2734C106.842 26.123 107.345 27.2884 107.345 28.7733C107.345 30.2582 106.842 31.4236 105.835 32.2656C104.828 33.1077 103.437 33.5288 101.66 33.5288H97.9204V37.9233H96.4473V23.999H101.656C103.437 23.999 104.828 24.4238 105.835 25.2734ZM104.782 31.3296C105.511 30.7281 105.876 29.8748 105.876 28.7733C105.876 27.6455 105.511 26.7809 104.782 26.1794C104.053 25.5779 103.001 25.2734 101.622 25.2734H97.9242V32.2356H101.622C102.997 32.2318 104.053 31.9311 104.782 31.3296Z" fill="black"/>
<path d="M126.97 23.999V37.9233H125.557V26.7846L120.089 36.1527H119.394L113.926 26.8448V37.9233H112.513V23.999H113.727L119.77 34.322L125.756 23.999H126.97Z" fill="black"/>
<path d="M143.335 36.6489V37.9233H133.493V23.999H143.038V25.2734H134.966V30.2244H142.163V31.4762H134.966V36.6489H143.335Z" fill="black"/>
<path d="M160.411 23.999V37.9233H159.198L150.25 26.6267V37.9233H148.777V23.999H149.991L158.957 35.2956V23.999H160.411Z" fill="black"/>
<path d="M169.638 25.2734H164.745V23.999H176V25.2734H171.107V37.9233H169.634V25.2734H169.638Z" fill="black"/>
</svg>
