<svg width="13" height="13" viewBox="0 0 13 13" fill="none" xmlns="http://www.w3.org/2000/svg">
<path d="M12.7059 10.3371L11.2694 9.37621L9.9924 8.52226C9.74595 8.35776 9.41474 8.41169 9.2328 8.64599L8.4426 9.66513C8.27286 9.88628 7.96752 9.94983 7.7241 9.81463C7.18793 9.5154 6.55388 9.23367 5.1549 7.82835C3.75592 6.42302 3.4733 5.78871 3.17504 5.2508C3.04028 5.00659 3.10362 4.70026 3.32406 4.52999L4.3399 3.73723C4.57342 3.55472 4.6272 3.22244 4.46323 2.97516L3.63818 1.73345L2.65428 0.252787C2.48681 0.000762236 2.15158 -0.074901 1.89268 0.0808687L0.757966 0.763818C0.451308 0.945079 0.225888 1.23778 0.128401 1.58123C-0.181902 2.71626 -0.244464 5.22007 3.75523 9.23276C7.75493 13.2454 10.2504 13.1825 11.3818 12.8711C11.7241 12.7734 12.0159 12.5472 12.1965 12.2395L12.8773 11.1012C13.0326 10.8414 12.9571 10.5051 12.7059 10.3371Z" fill="white"/>
<path d="M8.24974 0.709639C10.5959 0.712253 12.4972 2.61973 12.4998 4.97355C12.4998 5.11206 12.6118 5.22438 12.7499 5.22438C12.8879 5.22438 12.9999 5.11209 12.9999 4.97355C12.997 2.34282 10.872 0.210906 8.24977 0.208008C8.11171 0.208008 7.99976 0.320296 7.99976 0.458838C7.99973 0.597323 8.11165 0.709639 8.24974 0.709639Z" fill="white"/>
<path d="M8.24977 2.21455C9.76786 2.21634 10.998 3.45054 10.9998 4.97354C10.9998 5.11205 11.1117 5.22437 11.2498 5.22437C11.3879 5.22437 11.4999 5.11208 11.4999 4.97354C11.4978 3.1736 10.0439 1.71496 8.24977 1.71289C8.11171 1.71289 7.99976 1.82518 7.99976 1.96372C7.99976 2.10226 8.11168 2.21455 8.24977 2.21455Z" fill="white"/>
<path d="M8.24974 3.7194C8.93978 3.72023 9.49895 4.28121 9.49977 4.9735C9.49977 5.11201 9.6117 5.22433 9.74979 5.22433C9.88786 5.22433 9.99981 5.11204 9.99981 4.9735C9.9987 4.0043 9.21583 3.21888 8.24977 3.21777C8.11171 3.21777 7.99976 3.33006 7.99976 3.4686C7.99973 3.60712 8.11165 3.7194 8.24974 3.7194Z" fill="white"/>
</svg>
