<svg width="1272" height="158" viewBox="0 0 1272 158" fill="none" xmlns="http://www.w3.org/2000/svg">
<path d="M0.600001 3.19999V155H45V3.19999H0.600001ZM78 39.6C90.2 39.6 96.2 47 96.2 54.2C96.2 61.4 90 68.6 78 68.6H70.6L50.6 105H78C122.2 105 144.4 79.4 144.4 54C144.4 28.6 122.4 3.19999 78 3.19999H70.6L50.6 39.6H78ZM165.897 3.19999V155H210.297V3.19999H165.897ZM243.297 39.6C255.497 39.6 261.497 47 261.497 54.2C261.497 61.4 255.297 68.6 243.297 68.6H235.897L215.897 105H227.497L260.297 155H310.697L274.497 99.8C297.897 91 309.697 72.4 309.697 54C309.697 28.6 287.697 3.19999 243.297 3.19999H235.897L215.897 39.6H243.297ZM496.006 79C496.006 26.6 455.206 0.399988 414.406 0.399988C373.606 0.399988 333.006 26.6 333.006 79C333.006 131.4 373.606 157.6 414.406 157.6C455.206 157.6 496.006 131.4 496.006 79ZM448.806 79C448.806 107.8 431.806 122.2 414.606 122.2C397.406 122.2 380.206 107.8 380.206 79.2C380.206 50.4 397.206 36 414.406 36C431.606 36 448.806 50.4 448.806 79ZM631.272 117.2V3.19999H586.872V118.6H527.072L507.072 155H586.872C611.472 155 631.272 138 631.272 117.2ZM763.755 48.4L802.355 27.6C786.755 9.39999 762.755 0.399988 738.755 0.399988C697.955 0.399988 657.355 26.6 657.355 79C657.355 131.4 697.955 157.6 738.755 157.6C763.155 157.6 787.555 148.4 803.155 129.6L764.555 108.6C757.955 117.6 748.555 122.2 738.955 122.2C726.955 122.2 714.955 115.2 708.755 101.4H755.355L775.355 65H705.955C710.555 45.6 724.755 36 738.755 36C747.955 36 757.155 40 763.755 48.4ZM824.359 3.19999V155H868.759V119.2L961.359 157.6V113.2L868.759 74.8V3.19999H824.359ZM882.759 33V77.4L961.359 45V0.599997L882.759 33ZM1024.68 43.2V155H1069.08V57.2L1024.68 43.2ZM976.675 39.6H1106.88L1126.88 3.19999H976.675V39.6ZM1147.39 69.4L1217.39 118.6H1143.59L1123.59 155H1223.39C1252.59 155 1266.39 138.8 1266.39 121.4C1266.39 110 1260.59 98.2 1249.19 90.2L1177.79 39.6H1251.59L1271.59 3.19999H1171.79C1141.99 3.19999 1128.79 18.8 1128.79 36C1128.79 48 1135.39 61 1147.39 69.4Z" fill="url(#paint0_linear)"/>
<defs>
<linearGradient id="paint0_linear" x1="630" y1="-93" x2="630" y2="229" gradientUnits="userSpaceOnUse">
<stop offset="0.0677083" stop-color="#FFE600"/>
<stop offset="0.463542" stop-color="#FFE600"/>
<stop offset="1" stop-color="#202020"/>
</linearGradient>
</defs>
</svg>
