<svg width="27" height="27" viewBox="0 0 27 27" fill="none" xmlns="http://www.w3.org/2000/svg">
<path d="M13.5 27C20.9558 27 27 20.9558 27 13.5C27 6.04416 20.9558 0 13.5 0C6.04416 0 0 6.04416 0 13.5C0 20.9558 6.04416 27 13.5 27Z" fill="black"/>
<path d="M17.9993 10.6494C14.1001 10.6494 14.095 14.5339 14.095 14.5539C14.095 14.5539 13.8279 18.4432 17.9993 18.4432C17.9993 18.4432 21.4782 18.641 21.4782 15.7364H19.6918C19.6918 15.7364 19.751 16.8299 18.0588 16.8299C18.0588 16.8299 16.2724 16.9488 16.2724 15.0634H21.5376C21.5376 15.0634 22.1166 10.6494 17.9993 10.6494ZM16.2524 13.7025C16.2524 13.7025 16.4702 12.1388 18.039 12.1388C19.6127 12.1388 19.5879 13.7025 19.5879 13.7025H16.2524ZM11.7893 12.7031C11.7893 12.7031 13.3382 12.5893 13.3382 10.7683C13.3382 8.95239 12.0714 8.06152 10.4631 8.06152H5.17285V18.2302H10.4626C10.4626 18.2302 13.6941 18.3294 13.6941 15.2267C13.6943 15.2267 13.8329 12.7031 11.7893 12.7031ZM7.5038 9.86757H10.4628C10.4628 9.86757 11.1805 9.86757 11.1805 10.9264C11.1805 11.9853 10.7598 12.1388 10.2797 12.1388H7.5038V9.86757ZM10.3146 16.4242H7.5038V13.7025H10.4628C10.4628 13.7025 11.5369 13.6926 11.5318 15.1028C11.5318 16.2906 10.7353 16.4143 10.3146 16.4242ZM15.812 8.66025V9.91233H20.0085V8.66025H15.812Z" fill="white"/>
</svg>
