<svg width="27" height="27" viewBox="0 0 27 27" fill="none" xmlns="http://www.w3.org/2000/svg">
<path d="M18.5625 0H8.4375C3.77831 0 0 3.77831 0 8.4375V18.5625C0 23.2217 3.77831 27 8.4375 27H18.5625C23.2217 27 27 23.2217 27 18.5625V8.4375C27 3.77831 23.2217 0 18.5625 0ZM24.4688 18.5625C24.4688 21.8194 21.8194 24.4688 18.5625 24.4688H8.4375C5.18062 24.4688 2.53125 21.8194 2.53125 18.5625V8.4375C2.53125 5.18062 5.18062 2.53125 8.4375 2.53125H18.5625C21.8194 2.53125 24.4688 5.18062 24.4688 8.4375V18.5625Z" fill="black"/>
<path d="M13.1021 6.7207C9.42105 6.7207 6.43652 9.73007 6.43652 13.4418C6.43652 17.1535 9.42105 20.1629 13.1021 20.1629C16.7832 20.1629 19.7678 17.1535 19.7678 13.4418C19.7678 9.73007 16.7832 6.7207 13.1021 6.7207ZM13.1021 17.6425C10.8058 17.6425 8.93613 15.7572 8.93613 13.4418C8.93613 11.1247 10.8058 9.24111 13.1021 9.24111C15.3984 9.24111 17.2681 11.1247 17.2681 13.4418C17.2681 15.7572 15.3984 17.6425 13.1021 17.6425Z" fill="black"/>
</svg>
