<svg width="27" height="27" viewBox="0 0 27 27" fill="none" xmlns="http://www.w3.org/2000/svg">
<path d="M13.5 0C6.04441 0 0 6.04413 0 13.5C0 20.9559 6.04441 27 13.5 27C20.9556 27 27 20.9559 27 13.5C27 6.04413 20.9556 0 13.5 0ZM15.0534 17.9841C13.8047 17.9841 12.6302 17.309 12.228 16.5425C12.228 16.5425 11.5563 19.2066 11.4151 19.7206C10.9144 21.5381 9.4413 23.3562 9.32667 23.5051C9.24684 23.6086 9.07034 23.5763 9.05211 23.4388C9.0209 23.2073 8.6447 20.9144 9.08719 19.0445C9.30844 18.1053 10.5741 12.7429 10.5741 12.7429C10.5741 12.7429 10.2056 12.0046 10.2056 10.913C10.2056 9.19906 11.1989 7.91963 12.4357 7.91963C13.4873 7.91963 13.995 8.70933 13.995 9.65592C13.995 10.7133 13.3221 12.2943 12.9749 13.7594C12.6846 14.986 13.5895 15.9868 14.7993 15.9868C16.9905 15.9868 18.4652 13.1727 18.4652 9.83794C18.4652 7.30395 16.7593 5.40635 13.6541 5.40635C10.147 5.40635 7.95996 8.02238 7.95996 10.945C7.95996 11.9521 8.25772 12.6633 8.72342 13.2127C8.93693 13.4655 8.96731 13.5671 8.8897 13.8571C8.83363 14.0701 8.7074 14.5822 8.65381 14.7847C8.57675 15.078 8.33976 15.1824 8.07431 15.0744C6.45956 14.4151 5.7066 12.6457 5.7066 10.6566C5.7066 7.37162 8.47676 3.43252 13.9715 3.43252C18.3868 3.43252 21.2928 6.62722 21.2928 10.0573C21.2931 14.5949 18.7705 17.9841 15.0534 17.9841Z" fill="black"/>
</svg>
