<svg width="35" height="30" viewBox="0 0 35 30" fill="none" xmlns="http://www.w3.org/2000/svg">
<g filter="url(#filter0_d)">
<mask id="path-1-inside-1" fill="white">
<path d="M14.5946 14.4995L14.1479 20.6418C14.787 20.6418 15.0637 20.3734 15.3956 20.0511L18.3915 17.2517L24.5994 21.6967C25.738 22.3171 26.5401 21.9904 26.8472 20.6726L30.9221 2.00354L30.9232 2.00244C31.2844 0.356844 30.3146 -0.286652 29.2053 0.117045L5.25348 9.0831C3.61882 9.7035 3.64357 10.5945 4.9756 10.9982L11.0991 12.8605L25.3228 4.15842C25.9922 3.72503 26.6009 3.96483 26.1002 4.39822L14.5946 14.4995Z"/>
</mask>
<path d="M14.5946 14.4995L14.1479 20.6418C14.787 20.6418 15.0637 20.3734 15.3956 20.0511L18.3915 17.2517L24.5994 21.6967C25.738 22.3171 26.5401 21.9904 26.8472 20.6726L30.9221 2.00354L30.9232 2.00244C31.2844 0.356844 30.3146 -0.286652 29.2053 0.117045L5.25348 9.0831C3.61882 9.7035 3.64357 10.5945 4.9756 10.9982L11.0991 12.8605L25.3228 4.15842C25.9922 3.72503 26.6009 3.96483 26.1002 4.39822L14.5946 14.4995Z" fill="#03316C"/>
<path d="M14.5946 14.4995L0.519824 -1.53214L-6.04868 4.2346L-6.68258 12.9523L14.5946 14.4995ZM14.1479 20.6418L-7.12921 19.0947L-8.79294 41.9752H14.1479V20.6418ZM15.3956 20.0511L0.830385 4.46379L0.680463 4.60388L0.533263 4.74683L15.3956 20.0511ZM18.3915 17.2517L30.8114 -0.0936209L16.5986 -10.2705L3.82633 1.6643L18.3915 17.2517ZM24.5994 21.6967L12.1796 39.042L13.2431 39.8036L14.3918 40.4294L24.5994 21.6967ZM26.8472 20.6726L47.6238 25.5149L47.6579 25.3686L47.6899 25.2219L26.8472 20.6726ZM30.9221 2.00354L16.0016 -13.2441L11.4403 -8.78067L10.0795 -2.54572L30.9221 2.00354ZM30.9232 2.00244L45.8437 17.25L50.3956 12.7959L51.7607 6.57533L30.9232 2.00244ZM29.2053 0.117045L21.9096 -19.93L21.8178 -19.8966L21.7263 -19.8623L29.2053 0.117045ZM5.25348 9.0831L-2.22554 -10.8963L-2.27092 -10.8793L-2.31623 -10.8621L5.25348 9.0831ZM4.9756 10.9982L11.1828 -9.41214L11.173 -9.41513L11.1632 -9.41811L4.9756 10.9982ZM11.0991 12.8605L4.89191 33.2708L14.0591 36.0587L22.2325 31.0583L11.0991 12.8605ZM25.3228 4.15842L36.4562 22.3562L36.6885 22.2141L36.9171 22.0661L25.3228 4.15842ZM26.1002 4.39822L12.1374 -11.7309L12.0812 -11.6823L12.0255 -11.6334L26.1002 4.39822ZM-6.68258 12.9523L-7.12921 19.0947L35.4251 22.189L35.8717 16.0466L-6.68258 12.9523ZM14.1479 41.9752C17.7758 41.9752 21.6728 41.1309 25.3608 39.0526C26.9925 38.133 28.2137 37.177 28.9982 36.5075C29.3857 36.1769 29.6952 35.8911 29.8926 35.7053C30.0761 35.5326 30.2375 35.3753 30.2579 35.3555L0.533263 4.74683C0.0280051 5.23749 1.79722 3.35635 4.41311 1.88215C7.71996 0.0185481 11.1591 -0.691495 14.1479 -0.691495V41.9752ZM29.9608 35.6385L32.9568 32.839L3.82633 1.6643L0.830385 4.46379L29.9608 35.6385ZM5.9717 34.5969L12.1796 39.042L37.0193 4.35146L30.8114 -0.0936209L5.9717 34.5969ZM14.3918 40.4294C17.4538 42.098 25.4508 45.5023 34.6741 41.4174C43.968 37.3012 46.8108 29.0029 47.6238 25.5149L6.07074 15.8303C6.57653 13.6602 8.8647 6.18413 17.3961 2.40563C25.857 -1.3416 32.8836 1.9159 34.8071 2.96402L14.3918 40.4294ZM47.6899 25.2219L51.7647 6.55279L10.0795 -2.54572L6.00462 16.1234L47.6899 25.2219ZM45.8426 17.2511L45.8437 17.25L16.0027 -13.2452L16.0016 -13.2441L45.8426 17.2511ZM51.7607 6.57533C52.7783 1.93829 53.2282 -7.72443 45.2346 -15.2457C37.1663 -22.8373 27.2838 -21.8858 21.9096 -19.93L36.501 20.1641C32.2361 21.7162 23.3931 22.7876 15.9967 15.8282C8.67505 8.93917 9.42927 0.42099 10.0858 -2.57045L51.7607 6.57533ZM21.7263 -19.8623L-2.22554 -10.8963L12.7325 29.0625L36.6843 20.0964L21.7263 -19.8623ZM-2.31623 -10.8621C-4.1095 -10.1815 -6.84365 -8.92865 -9.54479 -6.61502C-12.0974 -4.42862 -16.5442 0.435798 -17.245 8.20525C-18.0139 16.729 -13.8207 23.0216 -10.166 26.3622C-6.8164 29.424 -3.28924 30.7849 -1.21195 31.4145L11.1632 -9.41811C12.5744 -8.9904 15.599 -7.89222 18.6204 -5.13044C21.9468 -2.08984 25.9864 3.86555 25.2491 12.0386C24.5799 19.4573 20.3501 23.9574 18.211 25.7896C15.9234 27.7491 13.7991 28.6579 12.8232 29.0283L-2.31623 -10.8621ZM-1.23161 31.4085L4.89191 33.2708L17.3063 -7.54985L11.1828 -9.41214L-1.23161 31.4085ZM22.2325 31.0583L36.4562 22.3562L14.1895 -14.0393L-0.0342598 -5.3373L22.2325 31.0583ZM36.9171 22.0661C35.1414 23.2158 32.9598 24.2171 30.4019 24.7825C28.2425 25.2599 24.0676 25.807 19.1743 24.1138C16.607 23.2254 12.9556 21.389 9.85874 17.6709C6.49665 13.6344 4.77034 8.5137 4.96584 3.31525C5.30393 -5.67488 10.9376 -10.6923 12.1374 -11.7309L40.0631 20.5274C41.5131 19.2721 47.2585 14.0621 47.6024 4.91869C48.0756 -7.66371 38.729 -14.2686 33.1263 -16.2073C28.0597 -17.9604 23.6384 -17.4191 21.1923 -16.8783C18.3476 -16.2495 15.839 -15.1156 13.7285 -13.7492L36.9171 22.0661ZM12.0255 -11.6334L0.519824 -1.53214L28.6693 30.5311L40.175 20.4298L12.0255 -11.6334Z" fill="black" mask="url(#path-1-inside-1)"/>
</g>
<defs>
<filter id="filter0_d" x="0" y="0" width="35" height="30" filterUnits="userSpaceOnUse" color-interpolation-filters="sRGB">
<feFlood flood-opacity="0" result="BackgroundImageFix"/>
<feColorMatrix in="SourceAlpha" type="matrix" values="0 0 0 0 0 0 0 0 0 0 0 0 0 0 0 0 0 0 127 0" result="hardAlpha"/>
<feOffset dy="4"/>
<feGaussianBlur stdDeviation="2"/>
<feColorMatrix type="matrix" values="0 0 0 0 0 0 0 0 0 0 0 0 0 0 0 0 0 0 0.25 0"/>
<feBlend mode="normal" in2="BackgroundImageFix" result="effect1_dropShadow"/>
<feBlend mode="normal" in="SourceGraphic" in2="effect1_dropShadow" result="shape"/>
</filter>
</defs>
</svg>
