<svg width="26" height="25" viewBox="0 0 26 25" fill="none" xmlns="http://www.w3.org/2000/svg">
<path d="M17.875 0H8.125C3.63838 0 0 3.49844 0 7.8125V17.1875C0 21.5016 3.63838 25 8.125 25H17.875C22.3616 25 26 21.5016 26 17.1875V7.8125C26 3.49844 22.3616 0 17.875 0ZM23.5625 17.1875C23.5625 20.2031 21.0112 22.6562 17.875 22.6562H8.125C4.98875 22.6562 2.4375 20.2031 2.4375 17.1875V7.8125C2.4375 4.79688 4.98875 2.34375 8.125 2.34375H17.875C21.0112 2.34375 23.5625 4.79688 23.5625 7.8125V17.1875Z" fill="black"/>
<path d="M12.7433 6.34375C9.26848 6.34375 6.45117 9.1845 6.45117 12.6882C6.45117 16.192 9.26848 19.0327 12.7433 19.0327C16.2181 19.0327 19.0354 16.192 19.0354 12.6882C19.0354 9.1845 16.2181 6.34375 12.7433 6.34375ZM12.7433 16.6536C10.5757 16.6536 8.81072 14.8739 8.81072 12.6882C8.81072 10.501 10.5757 8.72294 12.7433 8.72294C14.911 8.72294 16.6759 10.501 16.6759 12.6882C16.6759 14.8739 14.911 16.6536 12.7433 16.6536Z" fill="black"/>
</svg>
