<svg width="30" height="28" viewBox="0 0 30 28" fill="none" xmlns="http://www.w3.org/2000/svg">
<path d="M15 0C6.717 0 0 6.2692 0 14C0 21.7308 6.717 28 15 28C23.283 28 30 21.7308 30 14C30 6.2692 23.283 0 15 0ZM10.6412 21.1641H6.98799V10.9061H10.6412V21.1641ZM8.8147 9.50537H8.79089C7.565 9.50537 6.77216 8.71774 6.77216 7.73337C6.77216 6.72678 7.58926 5.96094 8.83896 5.96094C10.0887 5.96094 10.8577 6.72678 10.8815 7.73337C10.8815 8.71774 10.0887 9.50537 8.8147 9.50537ZM23.8138 21.1641H20.1611V15.6763C20.1611 14.2971 19.6321 13.3566 18.3103 13.3566C17.3012 13.3566 16.7001 13.991 16.436 14.6035C16.3394 14.8227 16.3158 15.129 16.3158 15.4355V21.1641H12.6629C12.6629 21.1641 12.7107 11.8685 12.6629 10.9061H16.3158V12.3585C16.8013 11.6595 17.6699 10.6653 19.6081 10.6653C22.0116 10.6653 23.8138 12.1314 23.8138 15.2822V21.1641Z" fill="black"/>
</svg>
