<svg width="25" height="25" viewBox="0 0 25 25" fill="none" xmlns="http://www.w3.org/2000/svg">
<path d="M24.3444 18.3475L20.8483 14.8586C19.5996 13.6126 17.477 14.1111 16.9775 15.7308C16.6029 16.8523 15.3543 17.4753 14.2305 17.2261C11.7333 16.603 8.36196 13.3634 7.73765 10.7468C7.36306 9.62536 8.11224 8.37935 9.236 8.0056C10.8592 7.50719 11.3587 5.38898 10.11 4.14297L6.61388 0.654154C5.61497 -0.218051 4.11662 -0.218051 3.24258 0.654154L0.870179 3.02157C-1.50222 5.51358 1.11991 12.1174 6.98847 17.9737C12.857 23.8299 19.4748 26.5712 21.972 24.0791L24.3444 21.7117C25.2185 20.7149 25.2185 19.2197 24.3444 18.3475Z" fill="black"/>
</svg>
