<svg width="25" height="26" viewBox="0 0 25 26" fill="none" xmlns="http://www.w3.org/2000/svg">
<path d="M12.5 0C5.59667 0 0 5.82028 0 13C0 20.1797 5.59667 26 12.5 26C19.4033 26 25 20.1797 25 13C25 5.82028 19.4033 0 12.5 0ZM13.9384 17.318C12.7821 17.318 11.6946 16.6679 11.3223 15.9298C11.3223 15.9298 10.7003 18.4952 10.5696 18.9902C10.1059 20.7404 8.74194 22.4911 8.63581 22.6345C8.56189 22.7342 8.39847 22.7031 8.38159 22.5707C8.35268 22.3478 8.00435 20.1398 8.41407 18.3391C8.61893 17.4348 9.79079 12.2709 9.79079 12.2709C9.79079 12.2709 9.44962 11.56 9.44962 10.5088C9.44962 8.85835 10.3693 7.62631 11.5146 7.62631C12.4882 7.62631 12.9583 8.38676 12.9583 9.29829C12.9583 10.3165 12.3353 11.839 12.0138 13.2498C11.745 14.431 12.5829 15.3947 13.7031 15.3947C15.732 15.3947 17.0974 12.6848 17.0974 9.47358C17.0974 7.03343 15.5179 5.20612 12.6427 5.20612C9.3954 5.20612 7.37033 7.72526 7.37033 10.5396C7.37033 11.5094 7.64604 12.1943 8.07724 12.7234C8.27494 12.9668 8.30307 13.0646 8.2312 13.3439C8.17928 13.549 8.0624 14.0421 8.01279 14.2371C7.94143 14.5196 7.72199 14.6201 7.47621 14.5161C5.98107 13.8812 5.28389 12.1773 5.28389 10.262C5.28389 7.0986 7.84885 3.30539 12.9366 3.30539C17.0248 3.30539 19.7156 6.38177 19.7156 9.68477C19.7159 14.0544 17.3801 17.318 13.9384 17.318Z" fill="black"/>
</svg>
