<svg width="33" height="28" viewBox="0 0 33 28" fill="none" xmlns="http://www.w3.org/2000/svg">
<g filter="url(#filter0_d)">
<mask id="path-1-inside-1" fill="white">
<path d="M13.8098 13.1813L13.3962 18.7653C13.9879 18.7653 14.2442 18.5213 14.5515 18.2283L17.3255 15.6833L23.0736 19.7243C24.1278 20.2883 24.8705 19.9913 25.1549 18.7933L28.9279 1.8214L28.9289 1.8204C29.2633 0.324404 28.3654 -0.260593 27.3382 0.106405L5.16063 8.25736C3.64705 8.82136 3.66997 9.63136 4.90333 9.99835L10.5733 11.6913L23.7434 3.78039C24.3632 3.38639 24.9267 3.60439 24.4632 3.99838L13.8098 13.1813Z"/>
</mask>
<path d="M13.8098 13.1813L13.3962 18.7653C13.9879 18.7653 14.2442 18.5213 14.5515 18.2283L17.3255 15.6833L23.0736 19.7243C24.1278 20.2883 24.8705 19.9913 25.1549 18.7933L28.9279 1.8214L28.9289 1.8204C29.2633 0.324404 28.3654 -0.260593 27.3382 0.106405L5.16063 8.25736C3.64705 8.82136 3.66997 9.63136 4.90333 9.99835L10.5733 11.6913L23.7434 3.78039C24.3632 3.38639 24.9267 3.60439 24.4632 3.99838L13.8098 13.1813Z" fill="#EFEFEF"/>
<path d="M13.8098 13.1813L-0.118716 -2.97749L-6.81256 2.79244L-7.46527 11.6057L13.8098 13.1813ZM13.3962 18.7653L-7.87882 17.1897L-9.57547 40.0986H13.3962V18.7653ZM14.5515 18.2283L0.129457 2.50838L-0.0215812 2.64694L-0.169929 2.78839L14.5515 18.2283ZM17.3255 15.6833L29.5947 -1.76885L15.5522 -11.641L2.90348 -0.0366125L17.3255 15.6833ZM23.0736 19.7243L10.8044 37.1765L11.8658 37.9227L13.0099 38.5348L23.0736 19.7243ZM25.1549 18.7933L45.9114 23.7205L45.9467 23.5719L45.9798 23.4229L25.1549 18.7933ZM28.9279 1.8214L14.1478 -13.5624L9.50125 -9.09818L8.10293 -2.80817L28.9279 1.8214ZM28.9289 1.8204L43.709 17.2042L48.3459 12.7493L49.7485 6.47397L28.9289 1.8204ZM27.3382 0.106405L20.1601 -19.983L20.0693 -19.9506L19.9789 -19.9174L27.3382 0.106405ZM5.16063 8.25736L-2.19872 -11.7664L-2.24358 -11.7499L-2.28836 -11.7332L5.16063 8.25736ZM4.90333 9.99835L11.007 -10.4432L10.9973 -10.4461L10.9876 -10.449L4.90333 9.99835ZM10.5733 11.6913L4.46959 32.1329L13.4891 34.826L21.5583 29.9791L10.5733 11.6913ZM23.7434 3.78039L34.7284 22.0681L34.9599 21.929L35.1879 21.7841L23.7434 3.78039ZM24.4632 3.99838L10.6471 -12.2567L10.5907 -12.2088L10.5347 -12.1604L24.4632 3.99838ZM-7.46527 11.6057L-7.87882 17.1897L34.6713 20.3409L35.0849 14.757L-7.46527 11.6057ZM13.3962 40.0986C16.9328 40.0986 20.7605 39.2918 24.4089 37.2731C26.027 36.3778 27.2417 35.4447 28.0249 34.7885C28.411 34.465 28.7191 34.1857 28.9148 34.0049C29.0964 33.8372 29.2557 33.6847 29.2729 33.6682L-0.169929 2.78839C-0.657237 3.25302 1.12762 1.39242 3.75215 -0.0597632C7.04767 -1.88321 10.4514 -2.56803 13.3962 -2.56803V40.0986ZM28.9735 33.9482L31.7475 31.4033L2.90348 -0.0366125L0.129457 2.50838L28.9735 33.9482ZM5.05633 33.1355L10.8044 37.1765L35.3427 2.27213L29.5947 -1.76885L5.05633 33.1355ZM13.0099 38.5348C16.0253 40.148 23.8534 43.4215 32.91 39.4833C42.1539 35.4637 45.067 27.2778 45.9114 23.7205L4.39833 13.8661C4.95837 11.5068 7.35785 4.06842 15.8958 0.355787C24.2464 -3.27535 31.1761 -0.135399 33.1372 0.913839L13.0099 38.5348ZM45.9798 23.4229L49.7528 6.45097L8.10293 -2.80817L4.32992 14.1637L45.9798 23.4229ZM43.7079 17.2052L43.709 17.2042L14.1488 -13.5634L14.1478 -13.5624L43.7079 17.2052ZM49.7485 6.47397C50.7951 1.79173 51.2203 -7.92245 43.1203 -15.4053C35.095 -22.8191 25.3859 -21.8503 20.1601 -19.983L34.5164 20.1958C30.3177 21.6961 21.5711 22.774 14.168 15.9349C6.69009 9.02675 7.39713 0.353072 8.10932 -2.83318L49.7485 6.47397ZM19.9789 -19.9174L-2.19872 -11.7664L12.52 28.2811L34.6976 20.1302L19.9789 -19.9174ZM-2.28836 -11.7332C-4.0283 -11.0849 -6.7312 -9.87461 -9.42223 -7.61155C-11.9388 -5.49518 -16.5177 -0.633365 -17.242 7.24988C-18.0398 15.9333 -13.682 22.258 -10.0385 25.5279C-6.69189 28.5313 -3.19675 29.8458 -1.18095 30.4457L10.9876 -10.449C12.3867 -10.0326 15.4165 -8.95694 18.4592 -6.22626C21.7988 -3.22913 26.0143 2.78907 25.2457 11.1536C24.5507 18.718 20.1729 23.2486 18.0391 25.043C15.7309 26.9841 13.5928 27.8816 12.6096 28.2479L-2.28836 -11.7332ZM-1.20033 30.4399L4.46959 32.1329L16.6769 -8.75019L11.007 -10.4432L-1.20033 30.4399ZM21.5583 29.9791L34.7284 22.0681L12.7584 -14.5073L-0.411731 -6.59639L21.5583 29.9791ZM35.1879 21.7841C33.4038 22.9182 31.233 23.8926 28.7074 24.4408C26.5775 24.903 22.4706 25.432 17.6472 23.7934C12.4085 22.0136 2.82943 15.6219 3.31573 2.92616C3.66611 -6.22149 9.48538 -11.2693 10.6471 -12.2567L38.2792 20.2535C39.6727 19.069 45.5954 13.8463 45.9511 4.55924C46.4428 -8.27587 36.771 -14.7714 31.3719 -16.6056C26.388 -18.2988 22.053 -17.775 19.6576 -17.2551C16.8666 -16.6493 14.3928 -15.5544 12.2988 -14.2233L35.1879 21.7841ZM10.5347 -12.1604L-0.118716 -2.97749L27.7383 29.3402L38.3917 20.1572L10.5347 -12.1604Z" fill="black" mask="url(#path-1-inside-1)"/>
</g>
<defs>
<filter id="filter0_d" x="0" y="0" width="33" height="28" filterUnits="userSpaceOnUse" color-interpolation-filters="sRGB">
<feFlood flood-opacity="0" result="BackgroundImageFix"/>
<feColorMatrix in="SourceAlpha" type="matrix" values="0 0 0 0 0 0 0 0 0 0 0 0 0 0 0 0 0 0 127 0" result="hardAlpha"/>
<feOffset dy="4"/>
<feGaussianBlur stdDeviation="2"/>
<feColorMatrix type="matrix" values="0 0 0 0 0 0 0 0 0 0 0 0 0 0 0 0 0 0 0.25 0"/>
<feBlend mode="normal" in2="BackgroundImageFix" result="effect1_dropShadow"/>
<feBlend mode="normal" in="SourceGraphic" in2="effect1_dropShadow" result="shape"/>
</filter>
</defs>
</svg>
